<?xml version="1.0" standalone="no"?><!DOCTYPE svg PUBLIC "-//W3C//DTD SVG 1.1//EN" "http://www.w3.org/Graphics/SVG/1.1/DTD/svg11.dtd"><svg t="1740290713250" class="icon" viewBox="0 0 1024 1024" version="1.1" xmlns="http://www.w3.org/2000/svg" p-id="1596" xmlns:xlink="http://www.w3.org/1999/xlink" width="200" height="200"><path d="M178.6 231h608.8a53.76 53.76 0 0 1 53.76 53.76v421.42H124.84V284.76A53.76 53.76 0 0 1 178.6 231z" fill="#495057" p-id="1597"></path><path d="M178.56 290.52h608.88V686.8H178.56z" fill="#343A40" p-id="1598"></path><path d="M62.16 686.8h841.68a7.16 7.16 0 0 1 7.16 7.2v14a43 43 0 0 1-43 43H98A43 43 0 0 1 55 708v-14a7.16 7.16 0 0 1 7.16-7.16z" fill="#495057" p-id="1599"></path><path d="M414.4 686.44h137.2v3.12a28.6 28.6 0 0 1-28.6 28.6h-80a28.6 28.6 0 0 1-28.6-28.6v-3.12zM178.56 290.52h608.88v36.44H178.56z" fill="#868E96" p-id="1600"></path><path d="M197.04 308.74a8.46 8.46 0 1 0 16.92 0 8.46 8.46 0 1 0-16.92 0Z" fill="#FC7070" p-id="1601"></path><path d="M224.1 308.74a8.46 8.46 0 1 0 16.92 0 8.46 8.46 0 1 0-16.92 0Z" fill="#F7BE1C" p-id="1602"></path><path d="M251.16 308.74a8.46 8.46 0 1 0 16.92 0 8.46 8.46 0 1 0-16.92 0Z" fill="#82C91E" p-id="1603"></path><path d="M220.96 372.14m14.34 0l93.1 0q14.34 0 14.34 14.34l0 0q0 14.34-14.34 14.34l-93.1 0q-14.34 0-14.34-14.34l0 0q0-14.34 14.34-14.34Z" fill="#FD7E14" p-id="1604"></path><path d="M363.72 372.52m14.3 0l45.54 0q14.3 0 14.3 14.3l0-0.02q0 14.3-14.3 14.3l-45.54 0q-14.3 0-14.3-14.3l0 0.02q0-14.3 14.3-14.3Z" fill="#FA5252" p-id="1605"></path><path d="M514.7 429.42m14.3 0l45.54 0q14.3 0 14.3 14.3l0-0.02q0 14.3-14.3 14.3l-45.54 0q-14.3 0-14.3-14.3l0 0.02q0-14.3 14.3-14.3Z" fill="#CED4DA" p-id="1606"></path><path d="M220.96 429.22m14.34 0l93.1 0q14.34 0 14.34 14.34l0 0q0 14.34-14.34 14.34l-93.1 0q-14.34 0-14.34-14.34l0 0q0-14.34 14.34-14.34Z" fill="#329AF0" p-id="1607"></path><path d="M363.72 429.42m14.3 0l99.14 0q14.3 0 14.3 14.3l0-0.02q0 14.3-14.3 14.3l-99.14 0q-14.3 0-14.3-14.3l0 0.02q0-14.3 14.3-14.3Z" fill="#FCC419" p-id="1608"></path><path d="M335.68 629.14h-99.38a14.34 14.34 0 0 1-14.3-14.34 14.34 14.34 0 0 1 14.32-14.34h99.38a14.34 14.34 0 0 1 14.3 14.34 14.34 14.34 0 0 1-14.32 14.34z" fill="#FCC419" p-id="1609"></path><path d="M372.76 600m14.3 0l45.54 0q14.3 0 14.3 14.3l0-0.02q0 14.3-14.3 14.3l-45.54 0q-14.3 0-14.3-14.3l0 0.02q0-14.3 14.3-14.3Z" fill="#FA5252" p-id="1610"></path><path d="M372.76 486.24m14.3 0l45.54 0q14.3 0 14.3 14.3l0-0.02q0 14.3-14.3 14.3l-45.54 0q-14.3 0-14.3-14.3l0 0.02q0-14.3 14.3-14.3Z" fill="#CED4DA" p-id="1611"></path><path d="M335.68 514.96h-99.38a14.34 14.34 0 0 1-14.32-14.34 14.34 14.34 0 0 1 14.32-14.34h99.38a14.34 14.34 0 0 1 14.32 14.34 14.34 14.34 0 0 1-14.32 14.34z" fill="#FA5252" p-id="1612"></path><path d="M787 675m-198 0a198 198 0 1 0 396 0 198 198 0 1 0-396 0Z" fill="#FCC419" p-id="1613"></path><path d="M725.64 732.12a10 10 0 0 1-7.08-2.92l-48.96-48.98a10 10 0 0 1 0-14.14l48.98-48.98a10 10 0 0 1 14.14 14.14l-41.9 42 41.9 42a10 10 0 0 1-7.08 17.08zM846.2 732.12a10 10 0 0 1-7.08-17.08l41.9-42-41.9-42a10 10 0 0 1 14.14-14.14L902.24 666a10 10 0 0 1 0 14.14l-48.98 48.98a10 10 0 0 1-7.06 3zM767.26 734.82a10 10 0 0 1-9.1-14.14l44.52-98a10 10 0 1 1 18.2 8.28l-44.52 98a10 10 0 0 1-9.1 5.86z" fill="#343A40" p-id="1614"></path><path d="M323.14 543.74m14.34 0l45.64 0q14.34 0 14.34 14.34l0 0q0 14.34-14.34 14.34l-45.64 0q-14.34 0-14.34-14.34l0 0q0-14.34 14.34-14.34Z" fill="#329AF0" p-id="1615"></path><path d="M223 542.74m14.34 0l45.64 0q14.34 0 14.34 14.34l0 0q0 14.34-14.34 14.34l-45.64 0q-14.34 0-14.34-14.34l0 0q0-14.34 14.34-14.34Z" fill="#FD7E14" p-id="1616"></path></svg>